<svg width="109" height="90" viewBox="0 0 109 90" fill="none" xmlns="http://www.w3.org/2000/svg">
<rect width="109" height="39" rx="19.5" fill="#08C785"/>
<path d="M21.1477 25V13.3636H23.2557V18.2898H28.6477V13.3636H30.7614V25H28.6477V20.0568H23.2557V25H21.1477ZM36.7699 25.1705C35.9176 25.1705 35.179 24.983 34.554 24.608C33.929 24.233 33.4441 23.7083 33.0994 23.0341C32.7585 22.3598 32.5881 21.572 32.5881 20.6705C32.5881 19.7689 32.7585 18.9792 33.0994 18.3011C33.4441 17.6231 33.929 17.0966 34.554 16.7216C35.179 16.3466 35.9176 16.1591 36.7699 16.1591C37.6222 16.1591 38.3608 16.3466 38.9858 16.7216C39.6108 17.0966 40.0938 17.6231 40.4347 18.3011C40.7794 18.9792 40.9517 19.7689 40.9517 20.6705C40.9517 21.572 40.7794 22.3598 40.4347 23.0341C40.0938 23.7083 39.6108 24.233 38.9858 24.608C38.3608 24.983 37.6222 25.1705 36.7699 25.1705ZM36.7812 23.5227C37.2434 23.5227 37.6297 23.3958 37.9403 23.142C38.2509 22.8845 38.482 22.5398 38.6335 22.108C38.7888 21.6761 38.8665 21.1951 38.8665 20.6648C38.8665 20.1307 38.7888 19.6477 38.6335 19.2159C38.482 18.7803 38.2509 18.4337 37.9403 18.1761C37.6297 17.9186 37.2434 17.7898 36.7812 17.7898C36.3078 17.7898 35.9138 17.9186 35.5994 18.1761C35.2888 18.4337 35.0559 18.7803 34.9006 19.2159C34.7491 19.6477 34.6733 20.1307 34.6733 20.6648C34.6733 21.1951 34.7491 21.6761 34.9006 22.108C35.0559 22.5398 35.2888 22.8845 35.5994 23.142C35.9138 23.3958 36.3078 23.5227 36.7812 23.5227ZM42.6974 25V16.2727H46.3622C47.3963 16.2727 48.2126 16.4792 48.8111 16.892C49.4134 17.3049 49.7145 17.8807 49.7145 18.6193C49.7145 19.108 49.544 19.5076 49.2031 19.8182C48.866 20.125 48.4058 20.3314 47.8224 20.4375C48.2808 20.4754 48.6823 20.5909 49.027 20.7841C49.3755 20.9773 49.6482 21.2311 49.8452 21.5455C50.0421 21.8598 50.1406 22.2216 50.1406 22.6307C50.1406 23.1117 50.0137 23.5303 49.7599 23.8864C49.5099 24.2386 49.1444 24.5133 48.6634 24.7102C48.1861 24.9034 47.6065 25 46.9247 25H42.6974ZM44.6236 23.3807H46.9247C47.3035 23.3807 47.6009 23.2917 47.8168 23.1136C48.0327 22.9318 48.1406 22.6856 48.1406 22.375C48.1406 22.0152 48.0327 21.733 47.8168 21.5284C47.6009 21.3201 47.3035 21.2159 46.9247 21.2159H44.6236V23.3807ZM44.6236 19.8864H46.402C46.6823 19.8864 46.9228 19.8466 47.1236 19.767C47.3243 19.6837 47.4777 19.5682 47.5838 19.4205C47.6899 19.2689 47.7429 19.089 47.7429 18.8807C47.7429 18.5814 47.6198 18.3466 47.3736 18.1761C47.1312 18.0057 46.794 17.9205 46.3622 17.9205H44.6236V19.8864ZM53.821 22.2159L57.3153 16.2727H59.429V25H57.4403V19.0511L53.9574 25H51.8381V16.2727H53.821V22.2159ZM67.5355 19.7841V21.4716H62.8878V19.7841H67.5355ZM63.5241 16.2727V25H61.5412V16.2727H63.5241ZM68.8821 16.2727V25H66.9048V16.2727H68.8821ZM70.9631 25V16.2727H73.0199V19.7955H73.7699L76.3949 16.2727H78.8722L75.6392 20.5568L78.9062 25H76.4176L74.0256 21.7102H73.0199V25H70.9631ZM82.5838 25.1761C82.0308 25.1761 81.5327 25.0777 81.0895 24.8807C80.6501 24.6799 80.3016 24.3845 80.044 23.9943C79.7902 23.6042 79.6634 23.1231 79.6634 22.5511C79.6634 22.0587 79.7543 21.6515 79.9361 21.3295C80.1179 21.0076 80.366 20.75 80.6804 20.5568C80.9948 20.3636 81.349 20.2178 81.7429 20.1193C82.1406 20.017 82.5516 19.9432 82.9759 19.8977C83.4872 19.8447 83.902 19.7973 84.2202 19.7557C84.5384 19.7102 84.7694 19.642 84.9134 19.5511C85.0611 19.4564 85.1349 19.3106 85.1349 19.1136V19.0795C85.1349 18.6515 85.008 18.3201 84.7543 18.0852C84.5005 17.8504 84.1349 17.733 83.6577 17.733C83.1539 17.733 82.7543 17.8428 82.4588 18.0625C82.1671 18.2822 81.9702 18.5417 81.8679 18.8409L79.9474 18.5682C80.099 18.0379 80.349 17.5947 80.6974 17.2386C81.0459 16.8788 81.4721 16.6098 81.9759 16.4318C82.4796 16.25 83.0365 16.1591 83.6463 16.1591C84.0668 16.1591 84.4853 16.2083 84.902 16.3068C85.3187 16.4053 85.6993 16.5682 86.044 16.7955C86.3887 17.0189 86.6652 17.3239 86.8736 17.7102C87.0857 18.0966 87.1918 18.5795 87.1918 19.1591V25H85.2145V23.8011H85.1463C85.0213 24.0436 84.8452 24.2708 84.6179 24.483C84.3944 24.6913 84.1122 24.8598 83.7713 24.9886C83.4342 25.1136 83.0384 25.1761 82.5838 25.1761ZM83.1179 23.6648C83.5308 23.6648 83.8887 23.5833 84.1918 23.4205C84.4948 23.2538 84.7277 23.0341 84.8906 22.7614C85.0573 22.4886 85.1406 22.1913 85.1406 21.8693V20.8409C85.0762 20.8939 84.9664 20.9432 84.8111 20.9886C84.6596 21.0341 84.4891 21.0739 84.2997 21.108C84.1103 21.142 83.9228 21.1723 83.7372 21.1989C83.5516 21.2254 83.3906 21.2481 83.2543 21.267C82.9474 21.3087 82.6728 21.3769 82.4304 21.4716C82.188 21.5663 81.9967 21.6989 81.8565 21.8693C81.7164 22.036 81.6463 22.2519 81.6463 22.517C81.6463 22.8958 81.7846 23.1818 82.0611 23.375C82.3376 23.5682 82.6899 23.6648 83.1179 23.6648Z" fill="white"/>
<rect y="51" width="54" height="39" rx="19.5" fill="#FA5D69"/>
<path d="M27.2557 73.8182V73.2045C27.2557 72.7538 27.3504 72.339 27.5398 71.9602C27.733 71.5814 28.0133 71.2765 28.3807 71.0455C28.7481 70.8144 29.1932 70.6989 29.7159 70.6989C30.2538 70.6989 30.7045 70.8144 31.0682 71.0455C31.4318 71.2727 31.7064 71.5758 31.892 71.9545C32.0814 72.3333 32.1761 72.75 32.1761 73.2045V73.8182C32.1761 74.2689 32.0814 74.6837 31.892 75.0625C31.7027 75.4413 31.4242 75.7462 31.0568 75.9773C30.6932 76.2083 30.2462 76.3239 29.7159 76.3239C29.1856 76.3239 28.7367 76.2083 28.3693 75.9773C28.0019 75.7462 27.7235 75.4413 27.5341 75.0625C27.3485 74.6837 27.2557 74.2689 27.2557 73.8182ZM28.7386 73.2045V73.8182C28.7386 74.1174 28.8106 74.392 28.9545 74.642C29.0985 74.892 29.3523 75.017 29.7159 75.017C30.0833 75.017 30.3352 74.8939 30.4716 74.6477C30.6117 74.3977 30.6818 74.1212 30.6818 73.8182V73.2045C30.6818 72.9015 30.6155 72.625 30.483 72.375C30.3504 72.1212 30.0947 71.9943 29.7159 71.9943C29.3598 71.9943 29.108 72.1212 28.9602 72.375C28.8125 72.625 28.7386 72.9015 28.7386 73.2045ZM21.3409 67.1591V66.5455C21.3409 66.0909 21.4375 65.6742 21.6307 65.2955C21.8239 64.9167 22.1042 64.6136 22.4716 64.3864C22.839 64.1553 23.2841 64.0398 23.8068 64.0398C24.3409 64.0398 24.7898 64.1553 25.1534 64.3864C25.5208 64.6136 25.7973 64.9167 25.983 65.2955C26.1686 65.6742 26.2614 66.0909 26.2614 66.5455V67.1591C26.2614 67.6136 26.1667 68.0303 25.9773 68.4091C25.7917 68.7841 25.5152 69.0852 25.1477 69.3125C24.7803 69.5398 24.3333 69.6534 23.8068 69.6534C23.2727 69.6534 22.822 69.5398 22.4545 69.3125C22.0909 69.0852 21.8144 68.7822 21.625 68.4034C21.4356 68.0246 21.3409 67.6098 21.3409 67.1591ZM22.8352 66.5455V67.1591C22.8352 67.4621 22.9053 67.7386 23.0455 67.9886C23.1894 68.2348 23.4432 68.358 23.8068 68.358C24.1705 68.358 24.4205 68.2348 24.5568 67.9886C24.697 67.7386 24.767 67.4621 24.767 67.1591V66.5455C24.767 66.2424 24.7008 65.9659 24.5682 65.7159C24.4356 65.4621 24.1818 65.3352 23.8068 65.3352C23.447 65.3352 23.1951 65.4621 23.0511 65.7159C22.9072 65.9697 22.8352 66.2462 22.8352 66.5455ZM21.9886 76L29.9886 64.3636H31.4091L23.4091 76H21.9886Z" fill="white"/>
</svg>
